<svg aria-hidden="true" style="width:0;height:0;position:absolute;overflow:hidden" xmlns="http://www.w3.org/2000/svg"><defs><symbol id="icon-telescope" viewBox="0 0 35 32"><path d="M27.464 2.314a.501.501 0 0 0-.698-.257L14.86 8.339a.499.499 0 0 0-.233.621l.245.641-6.873 3.769a.5.5 0 0 0-.222.63l.228.549-7.299 3.488a.5.5 0 0 0-.246.643l1.498 3.61a.5.5 0 0 0 .629.28l7.625-2.701.228.549a.5.5 0 0 0 .601.289l7.276-2.097.218.569a.497.497 0 0 0 .612.299l13-4a.498.498 0 0 0 .317-.663l-5-12.501zM2.7 21.469l-1.134-2.734 6.823-3.261 1.439 3.47L2.7 21.469zm8.491-1.846-.238-.574-1.843-4.445-.238-.573 6.336-3.475 2.374 6.134.375.981-6.766 1.952zm8.109-1.238-.203-.531c-.003-.011-.001-.024-.006-.035l-.618-1.597-2.754-7.206 11.023-5.815 4.592 11.48L19.3 18.385zM28.964.314a.5.5 0 0 0-.929.371l6 15a.502.502 0 0 0 .651.279.501.501 0 0 0 .279-.65l-6.001-15zM18 21h-3c-1.14 0-2 .86-2 2v1.315l-5.879 6.859a.5.5 0 1 0 .758.651L13.73 25H16v6.5a.5.5 0 0 0 1 0V25h2.27l5.85 6.825a.497.497 0 0 0 .705.054.5.5 0 0 0 .054-.705L20 24.315v-1.24C20 21.912 19.122 21 18 21zm1 3h-5v-1c0-.589.411-1 1-1h3c.57 0 1 .462 1 1.075V24z"/></symbol><symbol id="icon-load-more" viewBox="0 0 42 32"><path d="M33.958 12.982C33.528 6.372 28.931 0 20.5 0c-1.029 0-2.044.1-3.018.297a.5.5 0 0 0 .199.981A14.156 14.156 0 0 1 20.5 1C29.088 1 33 7.739 33 14v1.5a.5.5 0 0 0 1 0V14l-.001-.016C37.062 14.248 41 16.916 41 22.5c0 4.767-3.514 8.5-8 8.5H9c-3.976 0-8-2.92-8-8.5C1 18.406 3.504 14 9 14h1.5a.5.5 0 0 0 0-1H9v-2c0-3.727 2.299-6.042 6-6.042 3.364 0 6 2.654 6 6.042v12.993l-4.16-3.86a.499.499 0 1 0-.68.732l4.516 4.189c.299.298.563.445.827.445.261 0 .52-.145.808-.433l4.529-4.202a.498.498 0 0 0 .026-.706.497.497 0 0 0-.706-.026L22 23.993V11c0-3.949-3.075-7.042-7-7.042-4.252 0-7 2.764-7 7.042v2.051c-5.255.508-8 5.003-8 9.449C0 27.105 3.154 32 9 32h24c5.047 0 9-4.173 9-9.5 0-6.304-4.557-9.278-8.042-9.518z"/></symbol><symbol id="icon-download-cloud" viewBox="0 0 24 24"><path d="M11 12v6.586l-2.293-2.293a.999.999 0 1 0-1.414 1.414l4 4a1.006 1.006 0 0 0 1.414 0l4-4a.999.999 0 1 0-1.414-1.414L13 18.586V12a1 1 0 0 0-2 0zm10.455 6.908c1.355-.953 2.196-2.367 2.46-3.878s-.05-3.126-1.003-4.481a5.97 5.97 0 0 0-3.287-2.324A6.11 6.11 0 0 0 18.004 8h-.523a8.978 8.978 0 0 0-3.907-4.758C11.593 2.07 9.162 1.653 6.755 2.27s-4.338 2.155-5.51 4.136-1.589 4.412-.972 6.819a8.895 8.895 0 0 0 1.983 3.734 1 1 0 1 0 1.486-1.338 6.901 6.901 0 0 1-1.533-2.893c-.481-1.873-.157-3.761.756-5.304S5.377 4.688 7.25 4.208s3.761-.157 5.304.756 2.736 2.412 3.216 4.285c.116.435.506.751.97.751h1.256c.37.001.737.052 1.09.151a3.973 3.973 0 0 1 2.19 1.548c.636.904.845 1.978.669 2.988s-.736 1.95-1.64 2.585a1 1 0 0 0 1.15 1.636z"/></symbol><symbol id="icon-eye" viewBox="0 0 24 24"><path d="M.106 11.553a.997.997 0 0 0 0 .894s.396.789 1.12 1.843a20.553 20.553 0 0 0 1.757 2.218c.894.979 2.004 1.987 3.319 2.8C7.897 20.294 9.808 21 12 21s4.103-.706 5.698-1.692c1.315-.813 2.425-1.821 3.319-2.8a20.678 20.678 0 0 0 1.757-2.218 17.468 17.468 0 0 0 1.12-1.843.997.997 0 0 0 0-.894s-.396-.789-1.12-1.843a20.553 20.553 0 0 0-1.757-2.218c-.894-.979-2.004-1.987-3.319-2.8C16.103 3.706 14.192 3 12 3s-4.103.706-5.698 1.692c-1.315.813-2.425 1.821-3.319 2.8A20.455 20.455 0 0 0 1.226 9.71a17.468 17.468 0 0 0-1.12 1.843zM2.14 12a18.575 18.575 0 0 1 2.319-3.159c.805-.881 1.775-1.756 2.894-2.448C8.703 5.559 10.254 5 12 5s3.297.559 4.646 1.393c1.119.692 2.089 1.567 2.894 2.448A18.701 18.701 0 0 1 21.859 12a18.575 18.575 0 0 1-2.319 3.159c-.805.881-1.775 1.756-2.894 2.448C15.297 18.441 13.746 19 12 19s-3.297-.559-4.646-1.393c-1.119-.692-2.089-1.567-2.894-2.448A18.701 18.701 0 0 1 2.14 12zM16 12c0-1.104-.449-2.106-1.172-2.828a3.994 3.994 0 0 0-5.656 0 3.994 3.994 0 0 0 0 5.656 3.994 3.994 0 0 0 5.656 0A3.994 3.994 0 0 0 16 12zm-2 0c0 .553-.223 1.051-.586 1.414S12.553 14 12 14s-1.051-.223-1.414-.586S10 12.553 10 12s.223-1.051.586-1.414S11.447 10 12 10s1.051.223 1.414.586S14 11.447 14 12z"/></symbol><symbol id="icon-heart" viewBox="0 0 24 24"><path d="M20.133 5.317c.88.881 1.319 2.031 1.319 3.184s-.44 2.303-1.319 3.182L12 19.816l-8.133-8.133c-.879-.879-1.318-2.029-1.318-3.183s.439-2.304 1.318-3.183S5.896 3.999 7.05 3.999s2.304.439 3.183 1.318l1.06 1.06a.999.999 0 0 0 1.414 0l1.062-1.062c.879-.879 2.029-1.318 3.182-1.317s2.303.44 3.182 1.319zm1.414-1.414c-1.269-1.269-2.934-1.904-4.596-1.905s-3.327.634-4.597 1.903L12 4.256l-.353-.353C10.378 2.634 8.712 1.999 7.05 1.999s-3.328.635-4.597 1.904S.549 6.838.549 8.5s.635 3.328 1.904 4.597l8.84 8.84a.999.999 0 0 0 1.414 0l8.84-8.84c1.269-1.269 1.904-2.934 1.905-4.596s-.634-3.327-1.905-4.598z"/></symbol><symbol id="icon-chat" viewBox="0 0 42 32"><path d="M35.652 14.023a.5.5 0 0 0-.303.953C39.257 16.221 41 18.078 41 21c0 2.599-2.371 4.616-3.783 5.588A.5.5 0 0 0 37 27v3.823a7.953 7.953 0 0 1-3.126-2.155.505.505 0 0 0-.468-.159c-.285.055-.576.133-.871.212-.51.137-1.036.279-1.535.279-2.568 0-4.366-.552-6.204-1.903a.5.5 0 0 0-.593.806C26.23 29.393 28.199 30 31 30c.631 0 1.223-.159 1.795-.313.178-.049.355-.097.53-.138 1.869 1.974 3.983 2.423 4.075 2.441a.495.495 0 0 0 .416-.103A.498.498 0 0 0 38 31.5v-4.239c2.582-1.841 4-4.057 4-6.261 0-3.381-2.017-5.598-6.348-6.977zM33 13.5C33 5.804 25.982 0 16.677 0 7.325 0 0 5.931 0 13.502c0 4.539 3.211 7.791 6 9.759v6.636a.502.502 0 0 0 .705.456c.146-.065 3.559-1.616 6.479-4.809 1.265.235 2.696.461 3.994.461C26.641 26.005 33 20.979 33 13.5zM17.177 25.005c-1.31 0-2.799-.251-4.083-.496a.507.507 0 0 0-.468.159C10.576 26.98 8.167 28.449 7 29.082V23a.5.5 0 0 0-.217-.412C4.145 20.773 1 17.725 1 13.502 1 6.491 7.886 1 16.677 1 25.413 1 32 6.374 32 13.5c0 6.882-5.957 11.505-14.823 11.505zM16.5 11.5c-1.103 0-2 .897-2 2s.897 2 2 2 2-.897 2-2-.897-2-2-2zm0 3a1.001 1.001 0 0 1 0-2 1.001 1.001 0 0 1 0 2zm7-3c-1.103 0-2 .897-2 2s.897 2 2 2 2-.897 2-2-.897-2-2-2zm0 3a1.001 1.001 0 0 1 0-2 1.001 1.001 0 0 1 0 2zm-14-2.905c-1.103 0-2 .897-2 2s.897 2 2 2 2-.897 2-2-.897-2-2-2zm0 3a1.001 1.001 0 0 1 0-2 1.001 1.001 0 0 1 0 2z"/></symbol></defs></svg>