<svg aria-hidden="true" style="width:0;height:0;position:absolute;overflow:hidden" xmlns="http://www.w3.org/2000/svg"><defs><symbol id="icon-telescope" viewBox="0 0 35 32"><path d="M27.464 2.314a.501.501 0 0 0-.698-.257L14.86 8.339a.499.499 0 0 0-.233.621l.245.641-6.873 3.769a.5.5 0 0 0-.222.63l.228.549-7.299 3.488a.5.5 0 0 0-.246.643l1.498 3.61a.5.5 0 0 0 .629.28l7.625-2.701.228.549a.5.5 0 0 0 .601.289l7.276-2.097.218.569a.497.497 0 0 0 .612.299l13-4a.498.498 0 0 0 .317-.663l-5-12.501zM2.7 21.469l-1.134-2.734 6.823-3.261 1.439 3.47L2.7 21.469zm8.491-1.846-.238-.574-1.843-4.445-.238-.573 6.336-3.475 2.374 6.134.375.981-6.766 1.952zm8.109-1.238-.203-.531c-.003-.011-.001-.024-.006-.035l-.618-1.597-2.754-7.206 11.023-5.815 4.592 11.48L19.3 18.385zM28.964.314a.5.5 0 0 0-.929.371l6 15a.502.502 0 0 0 .651.279.501.501 0 0 0 .279-.65l-6.001-15zM18 21h-3c-1.14 0-2 .86-2 2v1.315l-5.879 6.859a.5.5 0 1 0 .758.651L13.73 25H16v6.5a.5.5 0 0 0 1 0V25h2.27l5.85 6.825a.497.497 0 0 0 .705.054.5.5 0 0 0 .054-.705L20 24.315v-1.24C20 21.912 19.122 21 18 21zm1 3h-5v-1c0-.589.411-1 1-1h3c.57 0 1 .462 1 1.075V24z"/></symbol><symbol id="icon-load-more" viewBox="0 0 42 32"><path d="M33.958 12.982C33.528 6.372 28.931 0 20.5 0c-1.029 0-2.044.1-3.018.297a.5.5 0 0 0 .199.981A14.156 14.156 0 0 1 20.5 1C29.088 1 33 7.739 33 14v1.5a.5.5 0 0 0 1 0V14l-.001-.016C37.062 14.248 41 16.916 41 22.5c0 4.767-3.514 8.5-8 8.5H9c-3.976 0-8-2.92-8-8.5C1 18.406 3.504 14 9 14h1.5a.5.5 0 0 0 0-1H9v-2c0-3.727 2.299-6.042 6-6.042 3.364 0 6 2.654 6 6.042v12.993l-4.16-3.86a.499.499 0 1 0-.68.732l4.516 4.189c.299.298.563.445.827.445.261 0 .52-.145.808-.433l4.529-4.202a.498.498 0 0 0 .026-.706.497.497 0 0 0-.706-.026L22 23.993V11c0-3.949-3.075-7.042-7-7.042-4.252 0-7 2.764-7 7.042v2.051c-5.255.508-8 5.003-8 9.449C0 27.105 3.154 32 9 32h24c5.047 0 9-4.173 9-9.5 0-6.304-4.557-9.278-8.042-9.518z"/></symbol></defs></svg>