<svg aria-hidden="true" style="position: absolute; width: 0; height: 0; overflow: hidden;" version="1.1" xmlns="http://www.w3.org/2000/svg" xmlns:xlink="http://www.w3.org/1999/xlink">
<defs>
<symbol id="icon-telescope" viewBox="0 0 35 32">
<path d="M27.464 2.314c-0.053-0.132-0.159-0.235-0.292-0.284s-0.281-0.039-0.406 0.027l-11.906 6.282c-0.224 0.118-0.324 0.385-0.233 0.621l0.245 0.641-6.873 3.769c-0.225 0.123-0.32 0.395-0.222 0.63l0.228 0.549-7.299 3.488c-0.24 0.115-0.348 0.397-0.246 0.643l1.498 3.61c0.080 0.192 0.265 0.309 0.462 0.309 0.056 0 0.112-0.009 0.167-0.029l7.625-2.701 0.228 0.549c0.079 0.191 0.264 0.309 0.462 0.309 0.046 0 0.092-0.006 0.139-0.020l7.276-2.097 0.218 0.569c0.074 0.197 0.263 0.321 0.465 0.321 0.049 0 0.098-0.007 0.147-0.022l13-4c0.134-0.041 0.244-0.136 0.304-0.262s0.065-0.272 0.013-0.401l-5-12.501zM2.7 21.469l-1.134-2.734 6.823-3.261 1.439 3.47-7.128 2.525zM11.191 19.623l-0.238-0.574c0 0 0 0 0 0l-1.843-4.445c0 0 0 0 0 0l-0.238-0.573 6.336-3.475 2.374 6.134 0.375 0.981-6.766 1.952zM19.3 18.385l-0.203-0.531c-0.003-0.011-0.001-0.024-0.006-0.035l-0.618-1.597-2.754-7.206 11.023-5.815 4.592 11.48-12.034 3.704zM28.964 0.314c-0.103-0.257-0.395-0.381-0.65-0.279-0.256 0.103-0.381 0.394-0.279 0.65l6 15c0.079 0.196 0.267 0.315 0.465 0.315 0.062 0 0.125-0.011 0.186-0.036 0.256-0.103 0.381-0.394 0.279-0.65l-6.001-15zM18 21h-3c-1.14 0-2 0.86-2 2v1.315l-5.879 6.859c-0.18 0.209-0.156 0.525 0.054 0.705 0.094 0.081 0.21 0.121 0.325 0.121 0.141 0 0.281-0.059 0.379-0.175l5.851-6.825h2.27v6.5c0 0.276 0.224 0.5 0.5 0.5s0.5-0.224 0.5-0.5v-6.5h2.27l5.85 6.825c0.099 0.116 0.239 0.175 0.38 0.175 0.115 0 0.231-0.040 0.325-0.121 0.21-0.18 0.234-0.495 0.054-0.705l-5.879-6.859v-1.24c0-1.163-0.878-2.075-2-2.075zM19 24h-5v-1c0-0.589 0.411-1 1-1h3c0.57 0 1 0.462 1 1.075v0.925z"></path>
</symbol>

<symbol id="icon-load-more" viewBox="0 0 42 32">
<path d="M33.958 12.982c-0.43-6.61-5.027-12.982-13.458-12.982-1.029 0-2.044 0.1-3.018 0.297-0.271 0.055-0.445 0.318-0.391 0.59 0.055 0.271 0.314 0.445 0.59 0.391 0.908-0.185 1.857-0.278 2.819-0.278 8.588 0 12.5 6.739 12.5 13v1.5c0 0.276 0.224 0.5 0.5 0.5s0.5-0.224 0.5-0.5v-1.5c0-0.005-0.001-0.011-0.001-0.016 3.063 0.264 7.001 2.932 7.001 8.516 0 4.767-3.514 8.5-8 8.5h-24c-3.976 0-8-2.92-8-8.5 0-4.094 2.504-8.5 8-8.5h1.5c0.276 0 0.5-0.224 0.5-0.5s-0.224-0.5-0.5-0.5h-1.5v-2c0-3.727 2.299-6.042 6-6.042 3.364 0 6 2.654 6 6.042v12.993l-4.16-3.86c-0.2-0.188-0.517-0.177-0.706 0.026s-0.177 0.519 0.026 0.706l4.516 4.189c0.299 0.298 0.563 0.445 0.827 0.445 0.261 0 0.52-0.145 0.808-0.433l4.529-4.202c0.203-0.188 0.215-0.504 0.026-0.706-0.188-0.204-0.506-0.215-0.706-0.026l-4.16 3.861v-12.993c0-3.949-3.075-7.042-7-7.042-4.252 0-7 2.764-7 7.042v2.051c-5.255 0.508-8 5.003-8 9.449 0 4.605 3.154 9.5 9 9.5h24c5.047 0 9-4.173 9-9.5 0-6.304-4.557-9.278-8.042-9.518z"></path>
</symbol>

</defs>
</svg>
